<svg width="452" height="48" viewBox="0 0 452 48" fill="none" xmlns="http://www.w3.org/2000/svg">
<path d="M35.864 39.856C35.928 41.2 35.864 41.968 35.864 43.184C35.864 44.08 35.8 44.976 35.8 45.936C35.672 46 35.48 46 35.224 45.936C35.096 45.936 34.968 45.936 34.904 45.936C33.432 45.936 31.896 45.936 30.424 45.936C28.824 45.936 27.288 45.936 25.688 45.936C20.888 45.936 16.152 46 11.352 46H4.312C3.992 46 3.672 46 3.288 46H0.408C0.408 45.936 0.408 45.808 0.472 45.616C0.472 45.424 0.472 45.232 0.472 45.04C0.408 43.952 0.344 42.864 0.344 41.776C0.344 41.328 0.28 40.88 0.28 40.432C0.28 40.24 0.28 40.048 0.28 39.856C0.216 39.344 0.28 38.128 0.28 37.68C0.28 37.616 0.472 37.424 0.92 36.976C1.624 36.208 2.264 35.44 2.904 34.672C3.544 33.904 4.184 33.136 4.888 32.368C5.464 31.792 5.976 31.152 6.552 30.576C7.704 29.296 8.92 28.016 10.136 26.736C11.8 24.752 13.528 22.768 15.256 20.784C16.344 19.504 17.496 18.16 18.648 16.816C19.352 16.048 20.056 15.216 20.76 14.448C21.4 13.744 22.04 13.04 22.68 12.272C22.936 12.016 23.256 11.696 23.576 11.376C24.088 10.8 24.664 10.224 25.048 9.776L26.84 7.664C26.84 7.664 23.192 7.664 22.488 7.664C22.36 7.664 22.296 7.664 22.232 7.664C21.208 7.664 20.184 7.664 19.16 7.664C18.072 7.664 16.92 7.664 15.832 7.664C12.76 7.664 9.688 7.728 6.744 7.728C5.336 7.792 3.928 7.792 2.584 7.792C2.072 7.856 1.624 7.792 1.176 7.728C0.856 7.728 0.856 7.664 0.792 7.344V7.28C0.792 6.768 0.792 6.256 0.792 5.808C0.856 4.784 0.856 4.4 0.856 3.312C0.856 2.928 0.856 2.48 0.856 2.096C0.792 1.84 0.792 1.584 0.792 1.328H34.648C34.712 1.328 34.712 1.328 34.712 1.328C34.648 2.16 34.712 2.928 34.776 3.696C34.84 4.592 34.712 8.432 34.712 8.432C33.816 9.456 31.576 11.952 30.808 12.912C30.36 13.488 19.032 27.056 17.944 28.208C16.856 29.296 15.768 30.448 14.808 31.6C14.168 32.368 13.08 33.2 12.248 34.096C11.352 35.056 10.456 36.272 9.752 37.104C9.56 37.296 7.384 39.472 7.384 39.472C7.384 39.472 11.032 39.472 11.288 39.472C14.36 39.472 18.264 39.6 21.592 39.536C24.92 39.472 28.312 39.408 31.384 39.408C32.6 39.408 33.944 39.408 35.416 39.472C35.672 39.472 35.8 39.472 35.864 39.472C35.864 39.536 35.864 39.664 35.864 39.856ZM69.0135 31.344C69.0135 31.6 69.0775 31.856 69.0775 32.112C68.5655 32.368 68.1175 32.368 67.5415 32.368C67.4135 32.368 67.3495 32.368 67.2855 32.368H59.6695C56.1495 32.368 52.6935 32.368 48.7895 32.368C47.7015 32.368 44.1815 32.432 44.1815 32.432L44.3735 33.392C44.6295 35.12 45.2695 36.784 46.2935 38.064C46.2935 38.064 49.2375 41.648 53.3335 41.648C57.1095 41.648 59.7975 40.176 61.7175 37.808C62.1655 37.36 62.1655 37.616 62.7415 37.808C63.3815 38.064 64.0215 38.256 64.7255 38.448C65.4935 38.704 66.3255 38.96 67.1575 39.28C67.4135 39.408 67.4775 39.472 67.4775 39.472C67.4775 39.536 67.4775 39.664 67.2855 39.856C66.9015 40.432 66.4535 40.944 65.9415 41.456L65.6215 41.776C63.9575 43.632 61.1415 45.424 58.5815 46.192C55.1255 47.28 51.0295 47.28 47.8295 46.256C44.5015 45.168 41.7495 43.312 39.9575 40.88C38.4855 38.896 37.7815 36.656 37.2695 34.608C36.6295 32.048 36.6935 29.424 37.5255 26.736C38.4855 23.536 40.1495 20.976 42.4535 18.992C45.5895 16.432 49.1095 15.088 52.8855 15.088C53.8455 15.088 54.8055 15.152 55.7655 15.344C62.5495 16.56 66.5815 19.952 68.3735 25.968C68.8215 27.44 68.9495 29.488 69.0135 31.344ZM61.9095 27.568H62.6775L62.4855 26.8C62.4855 25.52 58.8375 20.208 53.2695 20.208C49.8135 20.08 46.7415 22.128 44.6935 25.072C44.5015 25.328 44.3095 25.456 44.0535 26.096L43.6055 27.504C43.6055 27.504 49.2375 27.696 51.0295 27.632C51.1575 27.632 51.2855 27.632 51.3495 27.632C51.9255 27.632 53.7175 27.568 55.6375 27.568C60.9495 27.504 61.7175 27.632 61.9095 27.568ZM88.768 15.024C96.96 15.024 99.84 20.592 99.84 25.712V46H93.12V45.808C93.12 43.504 93.12 41.648 93.184 39.664V35.248C93.184 34.736 93.184 34.288 93.184 33.648V32.432C93.184 31.728 93.184 31.344 93.184 30C93.184 29.872 93.184 29.424 93.184 28.976C93.184 28.592 93.184 28.144 93.184 28.08C93.184 23.344 90.816 20.656 86.592 20.656C82.368 20.656 79.424 24.176 79.232 29.424V46H72.576V16.048H78.784L79.168 20.592L80.384 18.992C81.92 17.008 85.12 15.024 88.768 15.024ZM127.592 1.264H134.312C134.312 1.328 134.312 1.392 134.312 1.52V1.584C134.312 4.144 134.248 6.768 134.248 9.392C134.248 12.016 134.248 14.576 134.248 17.2C134.248 18.992 134.184 20.784 134.184 22.576C134.184 25.072 134.184 27.504 134.184 30C134.184 30.448 134.12 30.96 134.12 31.472C134.056 31.792 134.056 32.112 134.056 32.432C134.056 32.752 134.056 33.008 134.056 33.328V33.584C134.056 33.904 134.056 34.16 134.056 34.48C134.056 34.864 134.056 35.248 134.056 35.696C134.056 35.888 134.056 36.08 134.056 36.272C134.056 36.528 134.056 36.784 134.056 36.976C134.056 37.168 134.056 37.296 134.056 37.424C134.12 37.552 134.12 37.68 134.12 37.744C133.8 38.96 133.864 40.176 133.864 41.328C133.928 41.648 133.928 42.096 133.928 42.416C133.928 43.44 133.928 44.464 133.864 45.552C133.864 45.68 133.864 45.872 133.864 46H127.208C127.208 46 127.208 46 127.208 45.936C127.208 43.44 127.208 40.816 127.208 38.32C127.208 36.656 127.208 34.928 127.208 33.264C127.208 32.624 127.208 32.048 127.208 31.408C127.208 30.192 127.144 28.848 127.272 27.632C127.336 26.8 127.336 26.032 127.336 25.328C127.272 24.56 127.272 23.792 127.336 23.088C127.464 21.808 127.464 20.528 127.464 19.248C127.464 18.992 127.464 18.736 127.464 18.48C127.464 17.904 127.4 17.328 127.4 16.752C127.4 16.24 127.336 15.728 127.336 15.216C127.336 14.512 127.336 13.744 127.4 13.04C127.4 12.656 127.4 12.272 127.4 11.888C127.464 11.696 127.464 11.504 127.464 11.312C127.464 10.864 127.528 6.128 127.528 5.552C127.528 4.4 127.528 3.184 127.528 2.032L127.592 1.264ZM155.741 15.024C163.933 15.024 166.813 20.592 166.813 25.712V46H160.093V45.808C160.093 43.504 160.093 41.648 160.157 39.664V35.248C160.157 34.736 160.157 34.288 160.157 33.648V32.432C160.157 31.728 160.157 31.344 160.157 30C160.157 29.872 160.157 29.424 160.157 28.976C160.157 28.592 160.157 28.144 160.157 28.08C160.157 23.344 157.789 20.656 153.565 20.656C149.341 20.656 146.397 24.176 146.205 29.424V46H139.549V16.048H145.757L146.141 20.592L147.357 18.992C148.893 17.008 152.093 15.024 155.741 15.024ZM184.767 16.112L186.815 15.984V20.592H180.607V46H173.951V20.592H169.279V15.984H173.951V7.088L180.607 5.424V16.048L184.767 16.112ZM219.146 31.344C219.146 31.6 219.21 31.856 219.21 32.112C218.698 32.368 218.25 32.368 217.674 32.368C217.546 32.368 217.482 32.368 217.418 32.368H209.802C206.282 32.368 202.826 32.368 198.922 32.368C197.834 32.368 194.314 32.432 194.314 32.432L194.506 33.392C194.762 35.12 195.402 36.784 196.426 38.064C196.426 38.064 199.37 41.648 203.466 41.648C207.242 41.648 209.93 40.176 211.85 37.808C212.298 37.36 212.298 37.616 212.874 37.808C213.514 38.064 214.154 38.256 214.858 38.448C215.626 38.704 216.458 38.96 217.29 39.28C217.546 39.408 217.61 39.472 217.61 39.472C217.61 39.536 217.61 39.664 217.418 39.856C217.034 40.432 216.586 40.944 216.074 41.456L215.754 41.776C214.09 43.632 211.274 45.424 208.714 46.192C205.258 47.28 201.162 47.28 197.962 46.256C194.634 45.168 191.882 43.312 190.09 40.88C188.618 38.896 187.914 36.656 187.402 34.608C186.762 32.048 186.826 29.424 187.658 26.736C188.618 23.536 190.282 20.976 192.586 18.992C195.722 16.432 199.242 15.088 203.018 15.088C203.978 15.088 204.938 15.152 205.898 15.344C212.682 16.56 216.714 19.952 218.506 25.968C218.954 27.44 219.082 29.488 219.146 31.344ZM212.042 27.568H212.81L212.618 26.8C212.618 25.52 208.97 20.208 203.402 20.208C199.946 20.08 196.874 22.128 194.826 25.072C194.634 25.328 194.442 25.456 194.186 26.096L193.738 27.504C193.738 27.504 199.37 27.696 201.162 27.632C201.29 27.632 201.418 27.632 201.482 27.632C202.058 27.632 203.85 27.568 205.77 27.568C211.082 27.504 211.85 27.632 212.042 27.568ZM241.652 15.984V16.112V17.456C241.588 18.928 241.588 20.336 241.524 21.872C241.524 21.936 241.524 22 241.524 22.064C240.628 21.68 239.732 21.552 238.9 21.36C238.708 21.36 238.516 21.296 238.324 21.296C236.916 20.976 236.34 21.168 235.444 21.488C235.188 21.616 234.868 21.68 234.484 21.808C231.732 22.576 229.684 25.136 229.364 28.336C229.364 28.4 229.364 28.4 229.364 28.4V46H222.708V16.048H229.364V21.808C229.364 22.192 230.068 20.592 230.388 20.208C231.284 18.864 234.036 16.176 236.404 15.664C236.98 15.6 237.3 15.472 237.62 15.344C238.004 15.216 238.26 15.152 238.964 15.088C239.604 15.024 240.692 15.152 241.396 15.28C241.524 15.28 241.588 15.344 241.652 15.344C241.652 15.472 241.652 15.728 241.652 15.92C241.652 15.92 241.652 15.92 241.652 15.984ZM260.495 15.024C268.687 15.024 271.567 20.592 271.567 25.712V46H264.847V45.808C264.847 43.504 264.847 41.648 264.911 39.664V35.248C264.911 34.736 264.911 34.288 264.911 33.648V32.432C264.911 31.728 264.911 31.344 264.911 30C264.911 29.872 264.911 29.424 264.911 28.976C264.911 28.592 264.911 28.144 264.911 28.08C264.911 23.344 262.543 20.656 258.319 20.656C254.095 20.656 251.151 24.176 250.959 29.424V46H244.303V16.048H250.511L250.895 20.592L252.111 18.992C253.647 17.008 256.847 15.024 260.495 15.024ZM307.634 43.504C307.634 44.528 307.634 45.424 307.634 46C306.162 46 304.498 46 302.962 45.936C302.258 45.936 301.618 45.936 301.042 45.936C301.042 45.552 301.042 44.976 301.042 44.656C301.042 43.184 301.042 42.992 300.914 42.736L300.85 41.2L299.634 42.672C297.522 45.488 294.322 47.024 290.61 47.024C289.906 47.024 289.586 46.96 288.946 46.896C288.754 46.832 288.498 46.832 288.178 46.768C286.322 46.512 284.466 45.872 282.29 44.592C280.69 43.76 279.282 42.48 277.938 40.624C276.658 38.896 275.698 36.656 275.186 34.352C274.546 31.408 274.802 28.464 275.826 25.648C277.106 22 279.154 19.44 282.418 17.328C284.018 16.304 285.618 15.728 287.73 15.28C288.562 15.152 289.458 15.088 290.354 15.088C295.602 15.088 298.802 17.84 299.762 19.248L301.17 21.36L301.298 16.048H307.634C307.57 20.336 307.57 36.464 307.634 43.504ZM300.786 34.48C301.234 32.944 301.298 30.832 300.85 29.232C299.89 24.752 297.65 23.472 296.178 22.576C294.194 21.36 291.762 20.912 289.458 21.296C286.898 21.68 284.722 23.088 283.314 25.2C282.226 26.736 281.714 29.104 281.522 29.744V29.872C281.33 33.2 282.226 35.824 284.274 38.576L284.338 38.64L284.466 38.704C284.722 38.96 285.042 39.152 285.362 39.408C286.834 40.496 288.37 41.648 290.738 41.648C295.666 41.648 299.186 39.088 300.786 34.48ZM325.929 16.112L327.977 15.984V20.592H321.769V46H315.113V20.592H310.441V15.984H315.113V7.088L321.769 5.424V16.048L325.929 16.112ZM336.033 2.736C336.737 3.184 337.633 4.208 337.569 6.192C337.569 8.88 335.649 9.904 333.985 9.968C331.233 10.096 329.889 8.112 329.825 6.256C329.889 4.592 330.657 3.312 331.937 2.608C333.217 1.904 334.817 1.968 336.033 2.736ZM336.993 46H330.337V16.048H336.993V46ZM368.682 19.696C371.498 22.576 373.034 26.416 373.034 30.448C373.034 34.928 371.498 39.024 368.682 42.032C365.738 45.168 361.642 47.024 356.906 47.024C347.434 47.024 340.65 39.984 340.65 30.448C340.65 21.808 347.818 14.96 357.098 14.96C361.642 14.96 365.738 16.624 368.682 19.696ZM357.162 41.2C362.538 41.2 366.698 36.592 366.698 30.96C366.698 25.328 362.474 21.04 356.906 21.04C350.762 21.04 347.114 26.096 347.114 30.96C347.114 36.592 351.53 41.2 357.162 41.2ZM392.908 15.024C401.1 15.024 403.98 20.592 403.98 25.712V46H397.26V45.808C397.26 43.504 397.26 41.648 397.324 39.664V35.248C397.324 34.736 397.324 34.288 397.324 33.648V32.432C397.324 31.728 397.324 31.344 397.324 30C397.324 29.872 397.324 29.424 397.324 28.976C397.324 28.592 397.324 28.144 397.324 28.08C397.324 23.344 394.956 20.656 390.732 20.656C386.508 20.656 383.564 24.176 383.372 29.424V46H376.716V16.048H382.924L383.308 20.592L384.524 18.992C386.06 17.008 389.26 15.024 392.908 15.024ZM440.046 43.504C440.046 44.528 440.046 45.424 440.046 46C438.574 46 436.91 46 435.374 45.936C434.67 45.936 434.03 45.936 433.454 45.936C433.454 45.552 433.454 44.976 433.454 44.656C433.454 43.184 433.454 42.992 433.326 42.736L433.262 41.2L432.046 42.672C429.934 45.488 426.734 47.024 423.022 47.024C422.318 47.024 421.998 46.96 421.358 46.896C421.166 46.832 420.91 46.832 420.59 46.768C418.734 46.512 416.878 45.872 414.702 44.592C413.102 43.76 411.694 42.48 410.35 40.624C409.07 38.896 408.11 36.656 407.598 34.352C406.958 31.408 407.214 28.464 408.238 25.648C409.518 22 411.566 19.44 414.83 17.328C416.43 16.304 418.03 15.728 420.142 15.28C420.974 15.152 421.87 15.088 422.766 15.088C428.014 15.088 431.214 17.84 432.174 19.248L433.582 21.36L433.71 16.048H440.046C439.982 20.336 439.982 36.464 440.046 43.504ZM433.198 34.48C433.646 32.944 433.71 30.832 433.262 29.232C432.302 24.752 430.062 23.472 428.59 22.576C426.606 21.36 424.174 20.912 421.87 21.296C419.31 21.68 417.134 23.088 415.726 25.2C414.638 26.736 414.126 29.104 413.934 29.744V29.872C413.742 33.2 414.638 35.824 416.686 38.576L416.75 38.64L416.878 38.704C417.134 38.96 417.454 39.152 417.774 39.408C419.246 40.496 420.782 41.648 423.15 41.648C428.078 41.648 431.598 39.088 433.198 34.48ZM451.749 0.815998V6.96L451.557 19.44L451.749 27.696V46H445.093V0.815998H451.749Z" fill="white"/>
</svg>
